<?xml version="1.0" encoding="UTF-8" standalone="no"?>
<!DOCTYPE svg PUBLIC "-//W3C//DTD SVG 1.1//EN" "http://www.w3.org/Graphics/SVG/1.1/DTD/svg11.dtd">
<svg xmlns="http://www.w3.org/2000/svg" version="1.1" viewBox="0 0 505 494">
<path fill="#d80031" d="
  M 209.80 296.53
  C 211.24 294.11 211.16 290.14 211.57 287.54
  Q 212.96 278.87 214.15 270.16
  C 214.59 266.95 215.37 264.68 211.08 264.32
  C 191.28 262.64 171.28 262.57 151.43 261.60
  Q 141.13 261.10 131.44 260.80
  Q 111.96 260.18 92.49 259.31
  Q 75.45 258.55 92.49 257.71
  Q 93.63 257.66 94.69 257.63
  C 111.81 257.28 129.44 256.11 145.93 255.57
  Q 161.04 255.07 176.15 254.57
  C 187.46 254.20 202.45 253.05 215.67 252.86
  A 1.01 1.00 -74.3 0 0 216.50 252.39
  Q 218.47 249.24 218.52 245.50
  A 1.00 1.00 0.0 0 0 217.51 244.49
  C 213.93 244.54 208.67 245.19 205.65 243.34
  C 199.46 239.53 201.56 230.44 205.96 225.93
  Q 208.53 223.29 223.57 213.00
  A 0.97 0.93 84.6 0 0 223.94 212.53
  Q 224.75 210.35 222.25 210.28
  Q 189.85 209.31 150.38 207.20
  Q 144.68 206.90 150.36 206.39
  Q 151.32 206.30 152.27 206.20
  Q 156.90 205.73 160.24 205.63
  C 183.41 204.97 206.60 204.47 229.73 202.84
  C 236.56 202.36 240.40 200.69 245.58 196.83
  Q 274.67 175.14 303.71 153.36
  C 311.26 147.69 314.55 145.02 321.85 152.23
  Q 356.08 186.03 390.68 219.41
  Q 396.49 225.01 397.33 226.50
  C 400.52 232.07 397.69 240.25 391.90 243.25
  Q 389.61 244.43 385.23 244.48
  Q 382.22 244.52 379.21 244.55
  A 1.01 1.01 0.0 0 0 378.23 245.39
  L 365.78 321.66
  A 1.01 1.00 -85.3 0 1 364.79 322.50
  L 207.12 322.50
  A 1.00 1.00 0.0 0 1 206.13 321.34
  L 208.81 304.76
  A 1.00 1.00 0.0 0 0 207.87 303.60
  L 143.78 300.82
  Q 129.43 300.20 143.76 299.23
  Q 144.94 299.15 145.82 299.11
  Q 177.25 297.96 208.97 297.01
  A 0.99 0.98 14.8 0 0 209.80 296.53
  Z
  M 276.36 230.73
  Q 275.33 232.43 274.96 234.94
  L 273.05 248.11
  A 1.00 1.00 0.0 0 0 274.04 249.25
  L 293.71 249.25
  A 1.01 1.00 -85.3 0 0 294.70 248.41
  L 297.96 228.44
  A 1.01 1.01 0.0 0 0 296.98 227.27
  Q 289.23 227.18 281.57 227.40
  Q 278.32 227.49 276.36 230.73
  Z
  M 304.34 228.10
  L 301.19 248.00
  A 1.00 1.00 0.0 0 0 302.17 249.16
  L 321.88 249.28
  A 1.01 1.00 4.3 0 0 322.88 248.43
  L 325.57 231.08
  Q 326.11 227.56 322.44 227.51
  L 305.34 227.26
  A 1.00 1.00 0.0 0 0 304.34 228.10
  Z
  M 311.02 277.43
  C 317.00 277.81 318.73 274.01 319.59 268.52
  Q 320.52 262.62 321.57 256.70
  A 1.00 0.99 5.1 0 0 320.59 255.53
  L 300.64 255.44
  A 0.99 0.99 0.0 0 0 299.65 256.28
  L 296.57 276.09
  A 1.01 1.00 -85.9 0 0 297.57 277.25
  C 301.84 277.21 306.42 277.14 311.02 277.43
  Z
  M 289.14 277.26
  A 1.00 0.99 4.2 0 0 290.05 276.48
  Q 291.78 268.44 292.93 260.02
  Q 293.16 258.37 293.61 256.78
  A 1.00 1.00 0.0 0 0 292.65 255.51
  L 272.66 255.50
  A 1.01 1.01 0.0 0 0 271.67 256.33
  Q 270.49 263.27 269.37 270.23
  C 268.70 274.36 269.44 276.93 274.00 277.26
  Q 281.22 277.80 289.14 277.26
  Z"
/>
<path fill="#082b4a" d="
  M 255.85 340.79
  Q 254.43 342.42 253.01 344.10
  A 1.00 1.00 0.0 0 1 251.35 343.89
  Q 245.47 331.65 233.43 331.24
  C 221.06 330.81 209.09 339.52 205.38 351.45
  A 1.00 1.00 0.0 0 1 204.50 352.15
  Q 199.57 352.48 197.36 350.88
  C 194.41 348.74 196.46 340.77 197.27 337.63
  A 1.00 1.00 0.0 0 0 196.34 336.39
  L 94.50 332.23
  Q 93.52 332.19 94.20 331.94
  Q 94.39 331.87 94.75 331.86
  Q 137.89 330.26 173.00 328.24
  Q 196.41 326.90 217.19 326.89
  Q 282.63 326.88 348.06 327.17
  Q 357.65 327.21 368.79 326.86
  A 1.01 1.00 -85.8 0 0 369.75 326.02
  L 378.94 269.16
  A 1.01 0.99 4.1 0 1 379.92 268.32
  L 432.97 267.90
  A 0.99 0.99 0.0 0 1 433.91 268.53
  C 439.56 283.06 443.92 300.06 442.52 315.66
  Q 441.56 326.35 439.94 336.95
  C 439.71 338.48 440.15 339.23 440.64 340.59
  Q 440.72 340.82 440.69 341.07
  L 439.41 349.98
  Q 439.08 352.32 437.00 352.31
  L 408.70 352.22
  A 0.99 0.99 0.0 0 1 407.73 351.44
  Q 407.47 350.30 407.45 349.24
  C 407.14 335.34 392.38 328.66 380.29 332.40
  C 369.37 335.78 365.14 341.96 360.24 351.70
  A 1.01 0.99 -76.3 0 1 359.35 352.25
  L 297.68 352.25
  A 1.00 1.00 0.0 0 1 296.68 351.26
  Q 296.61 344.87 293.32 339.94
  C 284.30 326.43 265.20 330.05 255.85 340.79
  Z
  M 392.53 305.73
  L 434.59 311.09
  A 1.00 1.00 0.0 0 0 435.72 310.06
  C 435.25 297.92 432.58 287.20 428.53 275.91
  A 0.99 0.99 0.0 0 0 427.59 275.24
  Q 413.96 275.26 402.15 275.25
  C 400.46 275.25 398.22 274.21 396.45 275.92
  A 1.04 1.02 73.6 0 0 396.15 276.48
  L 391.67 304.58
  A 1.00 0.99 8.3 0 0 392.53 305.73
  Z"
/>
<path fill="#082b4a" d="
  M 243.3767 341.2877
  A 20.33 17.25 -42.3 0 1 239.9495 367.7286
  A 20.33 17.25 -42.3 0 1 213.3033 368.6523
  A 20.33 17.25 -42.3 0 1 216.7305 342.2114
  A 20.33 17.25 -42.3 0 1 243.3767 341.2877
  Z
  M 233.8568 349.9758
  A 7.42 6.27 -42.2 0 0 224.1483 350.3152
  A 7.42 6.27 -42.2 0 0 222.8632 359.9442
  A 7.42 6.27 -42.2 0 0 232.5717 359.6048
  A 7.42 6.27 -42.2 0 0 233.8568 349.9758
  Z"
/>
<path fill="#082b4a" d="
  M 287.5531 341.3306
  A 20.32 17.25 -42.2 0 1 284.0872 367.7589
  A 20.32 17.25 -42.2 0 1 257.4469 368.6294
  A 20.32 17.25 -42.2 0 1 260.9128 342.2011
  A 20.32 17.25 -42.2 0 1 287.5531 341.3306
  Z
  M 267.1341 359.9994
  A 7.39 6.29 136.9 0 0 276.8278 359.5427
  A 7.39 6.29 136.9 0 0 277.9259 349.9006
  A 7.39 6.29 136.9 0 0 268.2322 350.3573
  A 7.39 6.29 136.9 0 0 267.1341 359.9994
  Z"
/>
<path fill="#082b4a" d="
  M 398.5215 341.2420
  A 20.32 17.25 -42.5 0 1 395.1939 367.6880
  A 20.32 17.25 -42.5 0 1 368.5585 368.6980
  A 20.32 17.25 -42.5 0 1 371.8861 342.2520
  A 20.32 17.25 -42.5 0 1 398.5215 341.2420
  Z
  M 389.0902 349.9980
  A 7.43 6.31 -41.9 0 0 379.3460 350.2634
  A 7.43 6.31 -41.9 0 0 378.0298 359.9220
  A 7.43 6.31 -41.9 0 0 387.7740 359.6566
  A 7.43 6.31 -41.9 0 0 389.0902 349.9980
  Z"
/>
</svg>
